<?xml version="1.0" encoding="iso-8859-1"?>

<!DOCTYPE svg PUBLIC "-//W3C//DTD SVG 1.1//EN" "http://www.w3.org/Graphics/SVG/1.1/DTD/svg11.dtd">
<!-- Uploaded to: SVG Repo, www.svgrepo.com, Generator: SVG Repo Mixer Tools -->
<svg height="800px" width="800px" version="1.1" id="_x35_" xmlns="http://www.w3.org/2000/svg" xmlns:xlink="http://www.w3.org/1999/xlink" 
	 viewBox="0 0 512 512"  xml:space="preserve">
<g>
	<g>
		<g>
			<polygon style="fill:#EDBDD7;" points="87.576,186.821 87.576,325.252 75.311,333.478 75.236,333.478 7.404,379.099 0,384.034 
				0,128.037 75.236,178.518 			"/>
		</g>
		<g>
			<polygon style="fill:#F8D4E4;" points="190.633,0 190.633,117.567 87.576,186.821 75.236,178.518 0,128.037 			"/>
		</g>
		<g>
			<polygon style="fill:#E6C2DB;" points="381.266,128.037 374.685,132.45 306.03,178.518 293.69,186.821 190.633,117.567 
				190.633,0 347.762,105.526 			"/>
		</g>
		<g>
			<polygon style="fill:#F8D4E4;" points="293.697,186.801 293.697,325.219 381.239,384.005 381.239,128.015 			"/>
		</g>
		<g>
			<polygon style="fill:#E6C2DB;" points="87.569,325.22 87.569,325.219 0.027,384.005 190.633,512 190.633,394.427 			"/>
		</g>
		<g>
			<polygon style="fill:#EDBDD7;" points="293.697,325.22 190.634,394.428 190.633,394.427 190.633,512 381.239,384.005 
				381.239,384.005 293.697,325.219 			"/>
		</g>
		<g>
			<polygon style="fill:#DFB4D3;" points="75.266,178.539 75.266,333.481 190.633,256.01 			"/>
		</g>
		<g>
			<polygon style="fill:#EACAE0;" points="190.633,101.069 75.266,178.538 75.266,178.539 190.633,256.01 			"/>
		</g>
		<g>
			<polygon style="fill:#EACAE0;" points="75.266,333.481 75.266,333.482 190.633,410.951 190.633,256.01 			"/>
		</g>
		<g>
			<polygon style="fill:#DFB4D3;" points="190.634,101.068 190.633,101.069 190.633,256.01 306.001,178.539 306.001,178.538 			"/>
		</g>
		<g>
			<polygon style="fill:#EACAE0;" points="306.001,333.481 306.001,178.539 190.633,256.01 			"/>
		</g>
		<g>
			<polygon style="fill:#EACAE0;" points="190.633,410.951 190.634,410.952 306.001,333.482 306.001,333.481 190.633,256.01 			"/>
		</g>
		<g style="opacity:0.1;">
			<polygon style="fill:#DFB4D3;" points="190.634,101.068 190.633,101.069 75.266,178.538 75.266,178.539 75.266,333.481 
				75.266,333.481 190.633,410.951 190.634,410.952 306,333.481 306,333.481 306,178.539 306,178.538 			"/>
			<path style="fill:#E6C2DB;" d="M190.631,420.146L67.627,337.551V174.472l123.005-82.595l123.012,82.595v163.079L190.631,420.146z
				 M82.905,329.415l107.726,72.341l107.733-72.341V182.608L190.631,110.26L82.905,182.608V329.415z"/>
		</g>
	</g>
	<polygon style="opacity:0.06;fill:#040000;" points="37.485,409.158 190.633,512 381.239,384.005 381.239,128.015 343.782,102.862 
			"/>
</g>
</svg>