<?xml version="1.0" encoding="iso-8859-1"?>

<!DOCTYPE svg PUBLIC "-//W3C//DTD SVG 1.1//EN" "http://www.w3.org/Graphics/SVG/1.1/DTD/svg11.dtd">
<!-- Uploaded to: SVG Repo, www.svgrepo.com, Generator: SVG Repo Mixer Tools -->
<svg height="800px" width="800px" version="1.1" id="_x35_" xmlns="http://www.w3.org/2000/svg" xmlns:xlink="http://www.w3.org/1999/xlink" 
	 viewBox="0 0 512 512"  xml:space="preserve">
<g>
	<g>
		<path style="fill:#C1A693;" d="M378.556,184.647l-3.637,3.637L261.022,302.181l-87.496,87.495l-17.892,17.965l-10.837,10.764
			l-18.764,18.837l-10.837,10.764l-18.765,18.765l-10.837,10.837l-18.547,18.547L56.793,506.41
			c-2.837,2.837-6.327,4.582-10.037,5.309c-5.964,1.018-12.364-0.727-17.019-5.309L6.9,483.5l-1.309-1.31
			c-4.582-4.582-6.328-10.982-5.31-16.946c0.728-3.709,2.473-7.2,5.31-10.038l9.382-9.382l19.419-19.42l29.602-29.602l10.837-10.764
			l18.765-18.837l10.837-10.764l17.965-18.037l87.423-87.423l113.897-113.897l3.637-3.637c7.419-7.419,19.565-7.419,26.983,0
			l1.31,1.31l22.91,22.838C385.974,165.083,385.974,177.228,378.556,184.647z"/>
		<path style="fill:#C06262;" d="M173.017,394.768l-15.128,15.128l-29.602,29.602l-51.567,51.566
			c-2.691,2.691-6.109,4.436-9.673,5.092c-6.109,1.309-12.655-0.364-17.382-5.092l-29.311-29.311
			c-4.291-4.291-6.109-10.255-5.382-15.928c0-0.146,0-0.218,0.073-0.364c0.073-0.873,0.291-1.818,0.582-2.618
			c0-0.073,0-0.073,0-0.073c0.291-0.945,0.582-1.818,1.018-2.691c0.146-0.29,0.218-0.509,0.364-0.727
			c0.364-0.8,0.8-1.454,1.309-2.182c0.582-0.873,1.309-1.673,2.036-2.473l11.201-11.128l29.601-29.601l10.765-10.837l18.764-18.765
			l10.837-10.837l15.128-15.128c1.6-1.528,4.146-1.528,5.746,0l50.621,50.621c0.218,0.218,0.364,0.437,0.509,0.654
			C174.545,391.277,174.326,393.385,173.017,394.768z"/>
		<path style="fill:#FFFEFE;" d="M260.295,34.094c-39.566-1.164-79.568,13.382-109.824,43.639
			c-30.256,30.256-44.802,70.258-43.639,109.897l-33.238-21.238c-5.091-43.711,9.164-89.241,42.693-122.77
			c32.002-31.929,74.695-46.33,116.443-43.203c2.109,0.073,4.291,0.291,6.4,0.51l10.328,16.146L260.295,34.094z"/>
		<path style="fill:#44575E;" d="M302.624,116.062L188.727,229.958l-81.895-42.329c-1.164-39.639,13.383-79.641,43.639-109.897
			c30.256-30.256,70.258-44.803,109.824-43.639L302.624,116.062z"/>
		<polygon style="fill:#D7A86C;" points="157.89,409.895 147.052,420.659 144.798,418.405 108.36,382.04 93.595,367.202 
			90.686,364.366 101.523,353.529 		"/>
		<path style="opacity:0.07;fill:#191919;" d="M355.646,134.754l-17.165,17.164L224.584,265.815l-87.35,87.422l-18.037,17.965
			l-29.602,29.601l-10.764,10.837l-18.765,18.765l-10.837,10.837L24.5,465.898l-11.783,11.783L6.9,483.5l-1.309-1.31
			c-4.582-4.582-6.328-10.982-5.31-16.946c0.728-3.709,2.473-7.2,5.31-10.038l9.382-9.382c0-0.146,0-0.218,0.073-0.364
			c0.073-0.873,0.291-1.818,0.582-2.618c0-0.073,0-0.073,0-0.073c0.291-0.945,0.582-1.818,1.018-2.691
			c0.146-0.29,0.218-0.509,0.364-0.727c0.364-0.8,0.8-1.454,1.309-2.182c0.582-0.873,1.309-1.673,2.036-2.473l11.201-11.128
			l29.601-29.601l10.765-10.837l18.764-18.765l10.837-10.837l15.128-15.128c1.6-1.528,4.146-1.528,5.746,0l87.423-87.423
			l113.897-113.897l3.637-3.637c7.419-7.419,19.565-7.419,26.983,0L355.646,134.754z"/>
		<polygon style="fill:#D7A86C;" points="128.288,439.497 117.451,450.262 63.993,396.803 61.157,393.968 71.921,383.131 
			74.83,386.039 89.595,400.804 126.033,437.242 		"/>
		<polygon style="fill:#D7A86C;" points="98.686,469.026 87.849,479.864 34.392,426.405 31.556,423.569 42.392,412.732 
			45.229,415.569 60.066,430.406 		"/>
		<path style="fill:#44575E;" d="M388.811,202.176c-6.764,22.619-21.965,47.638-44.148,69.822
			c-22.11,22.183-47.13,37.384-69.749,44.076l-13.891-13.892l-36.438-36.366l-14.765-14.837l-21.092-21.019l113.897-113.896
			l21.092,21.018l14.764,14.837l36.438,36.366L388.811,202.176z"/>
	</g>
	<polygon style="fill:none;" points="194.406,235.617 194.406,266.392 209.819,250.978 	"/>
	<path style="opacity:0.07;fill:#040000;" d="M374.919,188.284l3.637-3.637c7.419-7.419,7.419-19.564,0-27.056l-22.91-22.838
		l-1.31-1.31c-7.418-7.419-19.564-7.419-26.983,0l-3.637,3.637l-21.092-21.018l-42.33-81.968l-10.837-17.02L239.13,0.928
		c-2.109-0.218-4.291-0.437-6.4-0.51c-12.808-0.959-25.674-0.066-38.324,2.275v232.924l15.414,15.36l-15.414,15.414v102.405
		l66.617-66.616l13.891,13.892c22.619-6.692,47.639-21.892,69.749-44.076c22.183-22.183,37.384-47.203,44.148-69.822
		L374.919,188.284z"/>
</g>
</svg>